<?xml version="1.0" encoding="utf-8"?>
<!-- Generator: Adobe Illustrator 24.0.1, SVG Export Plug-In . SVG Version: 6.00 Build 0)  -->
<svg version="1.1" id="Layer_1" xmlns="http://www.w3.org/2000/svg" xmlns:xlink="http://www.w3.org/1999/xlink" x="0px" y="0px"
	 viewBox="0 0 236 100" style="enable-background:new 0 0 236 100;" xml:space="preserve">
<style type="text/css">
	.st0{fill:none;stroke:#FFFFFF;stroke-width:3;stroke-miterlimit:10;}
	.st1{fill:#FFFFFF;}
</style>
<g>
	<path class="st0" d="M166.2,7H53.8h-8.2H2.2v44.4c0,24.6,19.9,44.4,44.4,44.4c0.3,0,0.7,0,0.9,0l0,0h118.7
		c24.6,0,44.4-19.9,44.4-44.4C210.7,26.9,190.8,7,166.2,7z"/>
	<path class="st1" d="M44.6,27.2L44.6,27.2c-0.7,0-1.3,0.3-1.5,0.9L29.3,59.5l-0.9,2.3H32l0.3-0.8l12.2-28.1l12.3,28l0.3,1h3.6
		L46,28.2C45.8,27.6,45.2,27.2,44.6,27.2"/>
	<path class="st1" d="M76.9,42.8c-4.5-1.7-9.2-3.4-9.2-6.1c0-3.4,3.8-6.2,8.3-6.2c4.6,0,8.3,2.8,8.3,6.2v1.6h3.2v-1.6
		c0-5.2-5.2-9.5-11.6-9.5s-11.6,4.3-11.6,9.5c0,5,5.9,7.2,11.6,9.4c4.5,1.7,9.3,3.5,9.3,6.3c0,3.3-4.3,6.2-9.3,6.2s-9.3-2.8-9.3-6.2
		v-1.6h-3.2v1.6c0,5.2,5.6,9.5,12.5,9.5c6.8,0,12.5-4.3,12.5-9.5C88.5,47.2,82.6,45,76.9,42.8"/>
	<path class="st1" d="M108.8,28.1c-0.3-0.6-0.8-0.9-1.4-0.9h-0.1c-0.7,0-1.2,0.3-1.4,0.9L92.1,59.5l-0.9,2.3h3.6l0.3-0.8l12.2-28.1
		l12.3,28l0.3,1h3.6L108.8,28.1z"/>
	<path class="st1" d="M35.2,75c-0.8,0.4-1.6,0.7-2.4,0.7c-1.3,0-2.3-0.4-3.2-1.3s-1.4-2-1.4-3.2s0.5-2.2,1.4-3s2-1.2,3.2-1.2
		c0.5,0,0.9,0,1.2,0.1s0.7,0.3,1.1,0.4l-0.9,1c-0.3-0.2-0.8-0.3-1.6-0.3s-1.4,0.3-2.1,0.9c-0.6,0.6-0.9,1.3-0.9,2
		c0,0.9,0.3,1.6,0.9,2.2c0.6,0.6,1.3,0.9,2.1,0.9c0.7,0,1.3-0.2,1.6-0.4L35.2,75z"/>
	<polygon class="st1" points="49.6,75.5 45.6,75.5 45.6,67.2 47,67.2 47,74.2 49.6,74.2 	"/>
	<rect x="60.1" y="67.2" class="st1" width="1.4" height="8.4"/>
	<polygon class="st1" points="78.5,75.6 73.7,70.8 73.7,75.6 72.1,75.6 72.1,66.8 76.9,71.7 76.9,67.1 78.5,67.1 	"/>
	<rect x="89" y="67.2" class="st1" width="1.4" height="8.4"/>
	<path class="st1" d="M107.7,75c-0.8,0.4-1.6,0.7-2.4,0.7c-1.3,0-2.3-0.4-3.2-1.3s-1.4-2-1.4-3.2s0.5-2.2,1.4-3s2-1.2,3.2-1.2
		c0.5,0,0.9,0,1.2,0.1s0.7,0.3,1.1,0.4l-0.9,1c-0.3-0.2-0.8-0.3-1.6-0.3c-0.8,0-1.4,0.3-2.1,0.9c-0.6,0.6-0.9,1.3-0.9,2
		c0,0.9,0.3,1.6,0.9,2.2s1.3,0.9,2.1,0.9c0.7,0,1.3-0.2,1.6-0.4L107.7,75z"/>
	<path class="st1" d="M123.6,73c0,0.8-0.3,1.4-0.9,1.9c-0.6,0.5-1.2,0.8-2,0.8s-1.4-0.3-2-0.7c-0.3-0.3-0.7-0.7-1-0.9l0.9-0.9
		c0.6,0.7,1.3,1.1,2,1.2c0.4,0,0.7-0.2,0.9-0.4c0.3-0.3,0.3-0.6,0.3-0.9c0-0.4-0.3-0.9-1-1.1c-0.6-0.3-1.2-0.6-1.8-0.9
		c-0.7-0.4-1-1-1-1.8c0-0.7,0.3-1.2,0.9-1.6c0.5-0.3,1.1-0.6,1.8-0.6c1,0,1.8,0.3,2.3,0.9l-0.9,1c-0.5-0.3-0.9-0.5-1.4-0.5
		c-0.3,0-0.5,0.1-0.8,0.3c-0.3,0.2-0.4,0.4-0.4,0.7c0,0.3,0.2,0.6,0.6,0.9c0.1,0,0.3,0.2,1,0.3c0.4,0.2,0.8,0.3,1.1,0.6
		c0.4,0.3,0.7,0.6,0.9,0.9c0.1,0.1,0.1,0.3,0.2,0.6C123.6,72.6,123.6,72.8,123.6,73"/>
	<path class="st1" d="M157.4,62.7c-3.6-2.8-5.7-7-5.7-11.5c0-5.8,3.4-11,8.8-13.4c0.6-0.3,1-0.9,1-1.5c0-0.9-0.8-1.6-1.6-1.6
		c-0.3,0-0.4,0.1-0.6,0.1l0,0c-6.6,2.8-10.8,9.3-10.8,16.5c0,5.5,2.6,10.7,7,14.2c3.2,2.5,5.2,6.2,5.6,10.5
		c-11.5-2.5-20-12.7-20-24.6c0-12,8.5-22.4,20.3-24.7c0.9-0.1,1.4-0.8,1.4-1.6c0-0.9-0.8-1.6-1.6-1.6c-0.1,0-0.2,0-0.3,0l0,0l0,0
		c0,0,0,0-0.1,0c-13.4,2.6-23,14.3-23,28c0,14.2,10.7,26.4,24.7,28.3l1.8,0.3l0.1-1.9c0-0.2,0-0.3,0-0.5
		C164.4,71.4,161.8,66.1,157.4,62.7"/>
	<path class="st1" d="M175.2,62.7c3.6-2.8,5.7-7,5.7-11.5c0-5.8-3.4-11-8.8-13.4c-0.6-0.3-1-0.9-1-1.5c0-0.9,0.8-1.6,1.6-1.6
		c0.3,0,0.4,0.1,0.6,0.1l0,0c6.6,2.8,10.8,9.3,10.8,16.5c0,5.5-2.6,10.7-7,14.2c-3.2,2.5-5.2,6.2-5.6,10.5c11.5-2.5,20-12.7,20-24.6
		c0-12-8.5-22.4-20.3-24.7c-0.9-0.1-1.4-0.8-1.4-1.6c0-0.9,0.8-1.6,1.6-1.6c0.1,0,0.2,0,0.3,0l0,0l0,0c0,0,0,0,0.1,0
		c13.4,2.6,23,14.3,23,28c0,14.2-10.7,26.4-24.7,28.3l-1.8,0.3l-0.1-1.9c0-0.2,0-0.3,0-0.5C168.2,71.4,170.8,66.1,175.2,62.7"/>
	<path class="st1" d="M173,47.5L173,47.5c-3.6-6.1-5.1-7.9-6.5-21.1c-0.1-0.9-0.3-1.9-0.3-2.6c0,0.9-0.1,1.7-0.3,2.6
		c-1.4,13-2.8,14.9-6.5,21.1l0,0c-0.7,1.2-1.1,2.5-1.1,3.9c0,0.1,0,0.2,0,0.2c0.1,4.2,3.5,7.6,7.8,7.6s7.7-3.3,7.8-7.6
		c0-0.1,0-0.2,0-0.2C174,50,173.7,48.7,173,47.5 M166.2,55.7c-2.4,0-4.3-2-4.3-4.3c0-2.4,2-4.3,4.3-4.3s4.3,2,4.3,4.3
		C170.6,53.8,168.6,55.7,166.2,55.7"/>
</g>
</svg>
