<?xml version="1.0" encoding="utf-8"?>
<!-- Generator: Adobe Illustrator 24.0.1, SVG Export Plug-In . SVG Version: 6.00 Build 0)  -->
<svg version="1.1" xmlns="http://www.w3.org/2000/svg" xmlns:xlink="http://www.w3.org/1999/xlink" x="0px" y="0px"
	 viewBox="0 0 812.5 812.5" style="enable-background:new 0 0 812.5 812.5;" xml:space="preserve">
<style type="text/css">
	.st0{fill:#A6CCF4;}
	.st1{opacity:0.335;}
	.st2{fill:#FFFFFF;}
	.st3{fill:#214A81;}
	.st4{fill:#8CB8F2;}
	.st5{fill:none;}
	.st6{fill:#A8F0C2;}
	.st7{fill:#EBF5FF;}
	.st8{fill:#23994E;}
	.st9{fill:#C1E8CF;}
	.st10{fill:#1A733B;}
	.st11{fill:#FFF9ED;}
	.st12{clip-path:url(#SVGID_2_);}
	.st13{fill:#072042;}
</style>
<g id="BACKGROUND">
</g>
<g id="OBJECTS">
	<g>
		<g>
			<g>
				<g>
					<path class="st6" d="M694.94,608.7c-24.6-36.74-58.66-68.37-98.24-91.88c-62.8-37.32-136.42-60.87-211.31-59.58
						c-70.13,1.21-144.32,33.4-182.42,100.14c-30.93,54.17-40.38,104.59-90.46,145.06c-34.59,27.95-90.17,37.22-107.43,76.35
						c-4.84,10.98-5.75,22.67-4.67,34.48h694.54V608.7z"/>
				</g>
			</g>
			<g>
				<path class="st2" d="M270.35,545.24c3.5-3.19,7.21-2.62,9.13-1.99c1.69-4.35,5.33-9.31,13.14-9.31
					c13.92,0,15.03,13.69,15.03,13.69c9.8-2.97,11.69,5.71,11.69,6.05h-52.67C266.67,548.09,270.35,545.24,270.35,545.24z"/>
				<g>
					<g>
						<g>
							<path class="st2" d="M535.62,570.35c2.55,0,4.94,0.69,7.01,1.89c3.96-6.9,11.26-11.55,19.64-11.55
								c7.83,0,14.73,4.05,18.83,10.2c2.17-7.42,8.87-12.83,16.82-12.83c9.02,0,16.44,6.97,17.43,15.93
								c0.73-0.12,1.46-0.19,2.22-0.19c5.5,0,10.27,3.18,12.66,7.85H521.71C523.2,575.17,528.85,570.35,535.62,570.35z"/>
						</g>
					</g>
				</g>
				<g>
					<circle class="st7" cx="466.26" cy="299.58" r="7.5"/>
					<path class="st8" d="M301.43,456.21c0,2.77-2.25,5.02-5.02,5.02c-2.77,0-5.02-2.25-5.02-5.02c0-2.77,2.25-5.02,5.02-5.02
						C299.18,451.2,301.43,453.44,301.43,456.21z"/>
					<path class="st7" d="M501.97,429.85l-3.01-1.61c-0.19-0.1-0.34-0.25-0.44-0.44l-1.61-3.01c-0.41-0.76-1.5-0.76-1.91,0
						l-1.61,3.01c-0.1,0.19-0.25,0.34-0.44,0.44l-3.01,1.61c-0.76,0.41-0.76,1.5,0,1.91l3.01,1.61c0.19,0.1,0.34,0.25,0.44,0.44
						l1.61,3.01c0.41,0.76,1.5,0.76,1.91,0l1.61-3.01c0.1-0.19,0.25-0.34,0.44-0.44l3.01-1.61
						C502.73,431.34,502.73,430.25,501.97,429.85z"/>
					<path class="st9" d="M324.86,329.28l-3.79-2.03c-0.24-0.13-0.43-0.32-0.56-0.56l-2.03-3.79c-0.51-0.96-1.89-0.96-2.4,0
						l-2.03,3.79c-0.13,0.24-0.32,0.43-0.56,0.56l-3.79,2.03c-0.96,0.51-0.96,1.89,0,2.4l3.79,2.03c0.24,0.13,0.43,0.32,0.56,0.56
						l2.03,3.79c0.51,0.96,1.89,0.96,2.4,0l2.03-3.79c0.13-0.24,0.32-0.43,0.56-0.56l3.79-2.03
						C325.82,331.17,325.82,329.8,324.86,329.28z"/>
					<path class="st9" d="M587.64,405.36l-4.58-2.46c-0.29-0.15-0.52-0.39-0.67-0.67l-2.46-4.58c-0.62-1.16-2.28-1.16-2.9,0
						l-2.46,4.58c-0.15,0.29-0.39,0.52-0.67,0.67l-4.58,2.46c-1.16,0.62-1.16,2.28,0,2.9l4.58,2.46c0.29,0.15,0.52,0.39,0.67,0.67
						l2.46,4.58c0.62,1.16,2.28,1.16,2.9,0l2.46-4.58c0.15-0.29,0.39-0.52,0.67-0.67l4.58-2.46
						C588.8,407.65,588.8,405.99,587.64,405.36z"/>
					<path class="st8" d="M230.6,387.73l-4.19-2.25c-0.26-0.14-0.48-0.35-0.62-0.62l-2.25-4.19c-0.57-1.06-2.09-1.06-2.66,0
						l-2.25,4.19c-0.14,0.26-0.35,0.48-0.62,0.62l-4.19,2.25c-1.06,0.57-1.06,2.09,0,2.66l4.19,2.25c0.26,0.14,0.48,0.35,0.62,0.62
						l2.25,4.19c0.57,1.06,2.09,1.06,2.66,0l2.25-4.19c0.14-0.26,0.35-0.48,0.62-0.62l4.19-2.25
						C231.66,389.82,231.66,388.29,230.6,387.73z"/>
					<path class="st8" d="M510.66,361.58l-3.07-1.65c-0.19-0.1-0.35-0.26-0.45-0.45l-1.65-3.07c-0.42-0.78-1.53-0.78-1.95,0
						l-1.65,3.07c-0.1,0.19-0.26,0.35-0.45,0.45l-3.07,1.65c-0.78,0.42-0.78,1.53,0,1.95l3.07,1.65c0.19,0.1,0.35,0.26,0.45,0.45
						l1.65,3.07c0.42,0.78,1.53,0.78,1.95,0l1.65-3.07c0.1-0.19,0.26-0.35,0.45-0.45l3.07-1.65
						C511.44,363.11,511.44,362,510.66,361.58z"/>
				</g>
				<rect x="381.55" y="583.21" class="st2" width="43.71" height="205.28"/>
				<path class="st7" d="M420.1,594.94c0-8.83-7.16-15.98-15.98-15.98c-8.83,0-15.98,7.16-15.98,15.98c0,0-2.07,37.79,15.98,57.91
					C422.17,632.73,420.1,594.94,420.1,594.94z"/>
				<g>
					<path class="st8" d="M348.3,508.39c0,0-59.85,28.99-36.14,114.47c0,0,12.66-42.97,53.27-54.1L348.3,508.39z"/>
					<path class="st8" d="M460.48,508.39c0,0,59.85,28.99,36.14,114.47c0,0-12.66-42.97-53.27-54.1L460.48,508.39z"/>
					<path class="st10" d="M423.81,586.58h-40.68c-1.61,0-3-1.11-3.35-2.68l-2.23-9.85c-0.49-2.15,1.15-4.2,3.35-4.2h45.15
						c2.2,0,3.84,2.05,3.35,4.2l-2.23,9.85C426.81,585.47,425.42,586.58,423.81,586.58z"/>
					<path class="st9" d="M344.76,485.3c0,0,6.24,57.33,25.54,93.66c0,0,30.65-14.76,66.98,0c0,0,22.14-30.65,26.68-98.2
						c2.62-38.92-0.51-83.36-13.4-121.65h-90.03C348.55,390.3,340.01,432.18,344.76,485.3z"/>
					<path class="st10" d="M397.15,296.99c-9.06,10.25-24.58,30.78-36.62,62.12h90.03c-8.25-24.5-20.49-46.49-37.82-62.88
						C408.29,292.01,401.22,292.39,397.15,296.99z"/>
					<path class="st8" d="M402.79,482.53c0,0-27.62,62.75,0,137.36C402.79,619.89,433.48,557.63,402.79,482.53z"/>
					<circle class="st10" cx="405.37" cy="424.3" r="34.74"/>
					
						<ellipse transform="matrix(0.2287 -0.9735 0.9735 0.2287 -100.3849 721.8982)" class="st11" cx="405.37" cy="424.3" rx="24.12" ry="24.12"/>
				</g>
				<g>
					<defs>
						<rect id="SVGID_1_" x="54.78" y="685.85" width="658.36" height="127.42"/>
					</defs>
					<clipPath id="SVGID_2_">
						<use xlink:href="#SVGID_1_"  style="overflow:visible;"/>
					</clipPath>
					<g class="st12">
						<ellipse class="st2" cx="343.43" cy="797.28" rx="50.85" ry="50.14"/>
						<ellipse class="st2" cx="498.98" cy="797.28" rx="45.56" ry="44.91"/>
						<ellipse class="st2" cx="423.83" cy="758.36" rx="35.62" ry="35.12"/>
						<ellipse class="st2" cx="358.92" cy="737.06" rx="24.82" ry="24.47"/>
						<ellipse class="st2" cx="422.19" cy="716.85" rx="16.96" ry="16.72"/>
						<ellipse class="st2" cx="392.04" cy="757.98" rx="30.05" ry="29.63"/>
						<ellipse class="st2" cx="152.14" cy="872.18" rx="91.87" ry="90.58"/>
						<ellipse class="st2" cx="262.44" cy="820.28" rx="68.89" ry="67.91"/>
						<ellipse class="st2" cx="599.34" cy="866.5" rx="97.37" ry="96"/>
						<ellipse class="st2" cx="357.87" cy="844.01" rx="68.89" ry="67.91"/>
						<ellipse class="st2" cx="440.64" cy="835.58" rx="77.43" ry="76.34"/>
					</g>
				</g>
			</g>
		</g>
		<polygon class="st6" points="694.94,608.7 812.5,813.27 694.94,813.27 		"/>
	</g>
</g>
<g id="DESIGNED_BY_FREEPIK">
</g>
</svg>
